<svg aria-hidden="true" style="position: absolute; width: 0; height: 0; overflow: hidden;"
    version="1.1" xmlns="http://www.w3.org/2000/svg" xmlns:xlink="http://www.w3.org/1999/xlink">
    <defs>
        <symbol id="icon-star-fill" viewBox="0 0 32 32">
            <path stroke-linejoin="round" stroke-linecap="round" stroke-miterlimit="4"
                stroke-width="2.4"
                d="M16 3.2l3.955 7.899 8.845 1.274-6.4 6.145 1.51 8.681-7.91-4.101-7.91 4.101 1.51-8.681-6.4-6.145 8.845-1.274 3.955-7.899z"></path>
        </symbol>
        <symbol id="icon-arrow" viewBox="0 0 64 32">
            <path d="M44.444 0l19.556 15.396-19.556 15.396v-12.729h-44.444v-5.333h44.444v-12.729z"></path>
        </symbol>
        <symbol id="icon-header-menu-button" viewBox="0 0 46 32">
            <path fill="none" stroke="#fff" style="stroke: var(--color2, #fff)"
                stroke-linejoin="miter" stroke-linecap="round" stroke-miterlimit="4"
                stroke-width="3.4286" d="M8.671 5.074h35.329"></path>
            <path fill="none" stroke="#fff" style="stroke: var(--color2, #fff)"
                stroke-linejoin="miter" stroke-linecap="round" stroke-miterlimit="4"
                stroke-width="3.4286" d="M8.671 24.468h35.329"></path>
            <path fill="none" stroke="#fff" style="stroke: var(--color2, #fff)"
                stroke-linejoin="miter" stroke-linecap="round" stroke-miterlimit="4"
                stroke-width="3.4286" d="M19.602 14.771h24.398"></path>
        </symbol>
        <symbol id="icon-star-empty" viewBox="0 0 32 32">
            <path d="M15.434 1.542c-0.118 0.080-0.218 0.173-0.304 0.279l-0.002 0.003c-0.075 0.099-1.005 1.942-2.067 4.098-1.561 3.33-2.217 4.629-2.882 5.923l0.915-1.963c-0.021 0.024-1.998 0.33-4.397 0.68-2.693 0.394-4.43 0.67-4.544 0.725-0.275 0.131-0.637 0.562-0.707 0.846-0.070 0.28-0.042 0.45 0.128 0.747 0.067 0.118 1.531 1.584 3.302 3.307 2.52 2.45 3.176 3.115 3.155 3.2-0.142 0.6-1.474 8.632-1.456 8.779 0.059 0.456 0.44 0.949 0.826 1.064 0.174 0.051 0.288 0.053 0.483 0.008 0.147-0.034 1.914-0.931 4.165-2.115-0.107-0.007 1.187-0.692 2.487-1.366l1.463-0.69c0.022 0 1.778 0.914 3.899 2.030 2.19 1.152 3.968 2.056 4.112 2.088 0.077 0.015 0.166 0.024 0.256 0.024 0.294 0 0.567-0.092 0.792-0.249l-0.004 0.003c0.236-0.184 0.386-0.469 0.386-0.788 0-0.006-0-0.012-0-0.017v0.001c0-0.17-1.374-8.363-1.472-8.771-0.021-0.085 0.634-0.749 3.149-3.194 2.328-2.264 3.203-3.149 3.286-3.32 0.139-0.29 0.155-0.885 0.030-1.128-0.131-0.223-0.332-0.394-0.572-0.484l-0.008-0.003c-0.096-0.032-2.141-0.346-4.542-0.696-2.403-0.352-4.386-0.658-4.406-0.682-0.019-0.022-0.906-1.805-1.968-3.962-1.061-2.155-1.995-3.989-2.074-4.074-0.349-0.371-1.069-0.525-1.43-0.304zM17.578 8.568c0.923 1.872 1.603 3.19 1.694 3.282 0.090 0.089 0.192 0.167 0.302 0.231l0.007 0.004c0.122 0.062 6.806 1.088 7.093 1.088 0.030 0 0.048 0.019 0.037 0.043-0.010 0.022-1.122 1.117-2.47 2.43-1.349 1.312-2.52 2.485-2.6 2.605-0.12 0.179-0.147 0.277-0.146 0.544 0 0.179 0.259 1.83 0.576 3.672 0.317 1.84 0.565 3.346 0.554 3.346s-1.25-0.645-2.749-1.434c-3.866-2.032-3.534-1.872-3.875-1.872s-0.008-0.162-3.883 1.877c-0.341 0.211-1.243 0.684-2.152 1.145l-0.6 0.276c-0.006-0.010 0.246-1.506 0.565-3.325 0.638-3.667 0.662-3.909 0.413-4.259-0.075-0.106-1.238-1.266-2.586-2.578s-2.458-2.405-2.467-2.427c-0.011-0.024 0.006-0.043 0.037-0.043 0.286 0 6.971-1.026 7.093-1.088 0.117-0.069 0.219-0.146 0.309-0.235l-0 0c0.091-0.091 0.773-1.411 1.694-3.282 0.848-1.72 1.558-3.128 1.578-3.128s0.728 1.408 1.578 3.128z"></path>
        </symbol>
        <symbol id="icon-header-logo-text" viewBox="0 0 203 32">
            <path
                d="M16.534 17.72h-11.202v10.588h-5.332v-25.108h18.146v4.386h-12.813v5.71h11.202v4.424z"></path>
            <path
                d="M27.344 24.678c3.031 0 4.565-1.891 4.565-5.672s-1.535-5.634-4.565-5.634c-3.031 0-4.565 1.853-4.565 5.634s1.535 5.672 4.565 5.672zM27.344 28.8c-6.1 0-9.706-4.008-9.706-9.794 0-5.899 3.721-9.794 9.706-9.794 5.908 0 9.591 3.857 9.591 9.794 0 5.899-3.721 9.794-9.591 9.794z"></path>
            <path
                d="M50.71 21.578h5.026c-0.537 4.311-4.105 7.222-8.67 7.222-5.141 0-8.67-3.365-8.67-10.021s3.529-9.567 8.824-9.567c4.91 0 8.248 2.76 8.555 7.147h-5.025c-0.269-1.928-1.688-3.063-3.568-3.063-2.11 0-3.836 1.323-3.836 5.37s1.726 6.012 3.683 6.012 3.491-1.096 3.683-3.101z"></path>
            <path
                d="M74.205 28.308h-4.719v-2.609c-1.304 2.118-3.261 3.101-5.869 3.101-3.76 0-6.407-2.76-6.407-6.844v-12.252h4.987v11.495c0 2.344 1.074 3.479 3.184 3.479 2.532 0 3.875-1.777 3.875-4.235v-10.739h4.949v18.605z"></path>
            <path
                d="M92.542 15.338h-4.795c-0.268-1.815-1.266-2.458-3.529-2.458-1.88 0-2.954 0.454-2.954 1.55s1.036 1.55 3.069 2.118c2.148 0.605 4.182 1.021 5.639 1.588 1.995 0.794 3.107 2.080 3.107 4.5 0 3.857-2.877 6.164-8.248 6.164-5.793 0-9.015-2.685-9.092-6.466h5.141c0 1.74 1.496 2.76 3.913 2.76 1.765 0 3.338-0.529 3.338-1.928 0-1.324-1.419-1.74-3.031-2.118-3.184-0.756-4.949-1.286-6.292-2.118-1.765-1.097-2.378-2.533-2.378-4.197 0-3.139 2.187-5.521 7.941-5.521 5.448 0 7.903 2.118 8.171 6.126z"></path>
            <path d="M99.704 28.308h-5.332v-5.105h5.332v5.105z"></path>
            <path
                d="M118.061 17.72h-11.202v10.588h-5.332v-25.108h18.146v4.386h-12.813v5.71h11.202v4.424z"></path>
            <path
                d="M125.249 28.308h-4.987v-18.605h4.68v2.231c1.65-2.496 3.568-2.723 5.601-2.723h0.652v5.029c-0.46-0.076-0.921-0.113-1.381-0.113-3.069 0-4.565 1.513-4.565 4.5v9.68z"></path>
            <path
                d="M143.083 21.237l0.038-2.042c-0.499 0.492-1.381 0.756-3.223 1.097-2.839 0.529-3.76 1.324-3.76 2.912 0 1.399 0.844 2.080 2.417 2.080 2.57 0 4.488-1.853 4.527-4.046zM148.108 28.308h-4.642c-0.153-0.454-0.268-1.097-0.307-1.664-1.189 1.286-3.184 2.155-5.716 2.155-4.297 0-6.292-2.080-6.292-5.105 0-5.37 3.644-5.975 8.67-6.655 2.494-0.34 3.184-0.832 3.184-2.118 0-1.21-1.228-1.928-3.184-1.928-2.263 0-3.184 1.097-3.414 2.76h-4.642c0.077-3.857 2.225-6.542 8.286-6.542 5.985 0 8.056 2.647 8.056 7.336v11.76z"></path>
            <path
                d="M177.315 28.308h-4.872v-11.269c0-2.231-1.189-3.819-2.954-3.819-1.842 0-3.184 1.702-3.184 3.971v11.117h-4.987v-11.193c0-2.987-0.806-3.744-2.993-3.744-1.995 0-3.031 1.21-3.031 3.63v11.306h-4.987v-18.605h4.68v2.723c1.266-2.458 3.031-3.214 5.524-3.214 2.571 0 3.798 0.794 5.256 2.949 1.035-2.042 2.723-2.949 5.102-2.949 3.798 0 6.445 2.723 6.445 6.201v12.895z"></path>
            <path
                d="M183.949 17.191h7.71c-0.077-2.76-1.918-4.084-3.875-4.084-1.994 0-3.643 1.513-3.835 4.084zM196.8 20.292h-13.005c0.154 2.798 1.765 4.613 4.219 4.613 1.611 0 3.030-0.794 3.376-2.080h5.141c-1.15 3.819-4.258 5.975-8.286 5.975-6.291 0-9.437-3.403-9.437-10.134 0-5.748 3.338-9.454 9.13-9.454 5.794 0 8.862 3.706 8.862 11.079z"></path>
        </symbol>
        <symbol id="icon-header-photo-logo" viewBox="0 0 32 32">
            <path fill="#bea69e" style="fill: var(--color1, #bea69e)" opacity="0.4"
                d="M21 17c0 1.326-0.527 2.598-1.464 3.536s-2.209 1.464-3.536 1.464-2.598-0.527-3.536-1.464c-0.938-0.938-1.464-2.21-1.464-3.536s0.527-2.598 1.464-3.536c0.938-0.938 2.209-1.464 3.536-1.464s2.598 0.527 3.536 1.464c0.938 0.938 1.464 2.209 1.464 3.536z"></path>
            <path fill="#bea69e" style="fill: var(--color1, #bea69e)" opacity="0.4"
                d="M4 8c-1.061 0-2.078 0.421-2.828 1.172s-1.172 1.768-1.172 2.828v12c0 1.061 0.421 2.078 1.172 2.828s1.768 1.172 2.828 1.172h24c1.061 0 2.078-0.421 2.828-1.172s1.172-1.768 1.172-2.828v-12c0-1.061-0.421-2.078-1.172-2.828s-1.768-1.172-2.828-1.172h-2.344c-1.061-0-2.078-0.422-2.828-1.172l-1.656-1.656c-0.75-0.75-1.767-1.172-2.828-1.172h-4.688c-1.061 0-2.078 0.422-2.828 1.172l-1.656 1.656c-0.75 0.75-1.767 1.172-2.828 1.172h-2.344zM5 12c-0.265 0-0.52-0.105-0.707-0.293s-0.293-0.442-0.293-0.707c0-0.265 0.105-0.52 0.293-0.707s0.442-0.293 0.707-0.293c0.265 0 0.52 0.105 0.707 0.293s0.293 0.442 0.293 0.707c0 0.265-0.105 0.52-0.293 0.707s-0.442 0.293-0.707 0.293zM23 17c0 1.857-0.737 3.637-2.050 4.95s-3.093 2.050-4.95 2.050c-1.857 0-3.637-0.737-4.95-2.050s-2.050-3.093-2.050-4.95c0-1.857 0.738-3.637 2.050-4.95s3.093-2.050 4.95-2.050c1.857 0 3.637 0.738 4.95 2.050s2.050 3.093 2.050 4.95z"></path>
        </symbol>
        <symbol id="icon-header-active-menu-cancel-btn" viewBox="0 0 32 32">
            <path d="M7.751 6.45c-0.423 0.104-1.008 0.609-1.219 1.055-0.126 0.263-0.125 0.725 0.001 1.002 0.067 0.147 1.213 1.331 3.728 3.853l3.631 3.64-3.631 3.64c-2.515 2.522-3.661 3.706-3.728 3.853-0.127 0.278-0.127 0.739 0 1.005 0.144 0.304 0.566 0.739 0.886 0.913 0.362 0.197 0.762 0.209 1.114 0.032 0.17-0.085 1.295-1.173 3.854-3.728l3.613-3.607 3.613 3.607c2.559 2.555 3.684 3.643 3.854 3.728 0.522 0.262 1.124 0.102 1.623-0.431 0.482-0.516 0.603-1.046 0.353-1.545-0.085-0.17-1.173-1.295-3.728-3.854l-3.607-3.613 3.607-3.613c2.555-2.559 3.643-3.684 3.728-3.854 0.262-0.522 0.102-1.124-0.431-1.623-0.516-0.482-1.046-0.603-1.545-0.353-0.17 0.085-1.295 1.173-3.854 3.728l-3.613 3.607-3.613-3.607c-2.325-2.321-3.69-3.646-3.827-3.713-0.26-0.129-0.583-0.177-0.809-0.122z"></path>
        </symbol>   
       <symbol id="icon-arrow-narrow-up-right-two" viewBox="0 0 32 32">
            <path d="M18.347 6.986c-3.898 0.021-5.451 0.045-5.547 0.088-0.299 0.138-0.48 0.482-0.48 0.915 0 0.507 0.198 0.835 0.581 0.963 0.13 0.043 1.394 0.061 4.4 0.061h4.218l-7.21 7.214c-5.107 5.109-7.235 7.27-7.293 7.411-0.162 0.389-0.077 0.73 0.262 1.064 0.363 0.36 0.709 0.448 1.086 0.277 0.128-0.058 2.707-2.597 7.408-7.293l7.214-7.205v4.218c0 3.006 0.018 4.27 0.061 4.4 0.13 0.389 0.456 0.581 0.987 0.581 0.387 0 0.709-0.179 0.856-0.48l0.118-0.24 0.006-5.638 0.006-5.64-0.125-0.227c-0.198-0.304-0.535-0.504-0.919-0.509h-0.001c-0.12 0.008-2.653 0.026-5.63 0.040z"></path>
       </symbol>
    </defs>
</svg>